<?xml version="1.0"?>
<svg width="32" height="8" xmlns="http://www.w3.org/2000/svg" xmlns:svg="http://www.w3.org/2000/svg">
 <g class="layer">
  <title>Layer 1</title>
  <path d="m15.39,5.23l-0.08,0.77a-0.62,-0.58 0 0 0 -0.43,0.5l0,0.02a-0.62,-0.58 0 0 0 0.57,0.66l0.02,0a-0.62,-0.58 0 0 0 0.7,-0.53l0,-0.02a-0.62,-0.58 0 0 0 -0.3,-0.58l0,0l0.08,-0.77a-1.75,-1.64 0 0 0 0.9,-0.26l0,0l2.11,1.93c-0.24,0.7 0.66,1.26 1.21,0.73c0.55,-0.54 -0.1,-1.4 -0.83,-1.1l0,0l-2.07,-1.9a-1.74,-1.64 0 0 0 0.4,-0.91c0.04,-0.37 -0.04,-0.72 -0.23,-1.02l0,0.01l0.75,-0.56c0.05,0.02 0.11,0.04 0.17,0.04l0,0c0.52,0.06 0.85,-0.51 0.52,-0.9c-0.33,-0.39 -0.99,-0.21 -1.05,0.28a-0.58,-0.55 0 0 0 0.01,0.17l0,0l-0.74,0.56a-1.76,-1.65 0 0 0 -1.52,-0.46a-1.76,-1.65 0 0 0 -1.39,2.34a-1.76,-1.65 0 0 0 1.2,1l0.01,0l0,0zm0.56,-2.52c0.82,0.09 1.13,1.08 0.49,1.56c-0.64,0.49 -1.6,-0.01 -1.51,-0.79l0,0a-0.9,-0.85 0 0 1 1.02,-0.77l0,0z" fill="#fc003e" id="svg_1"/>
  <text fill="#020202" font-family="Serif" font-size="5.08" font-weight="bold" id="svg_2" stroke-width="0" style="cursor: move;" text-anchor="middle" transform="matrix(1 0 0 1 0 0)" x="7.63" xml:space="preserve" y="4.92">Simpl</text>
  <path d="m20.75,1.27l0,0c0,-0.5 0.52,-0.91 1.16,-0.91l0.53,0l0,0l2.52,0l4.73,0c0.31,0 0.6,0.1 0.82,0.27c0.22,0.17 0.34,0.4 0.34,0.64l0,2.27l0,0l0,1.36l0,0c0,0.5 -0.52,0.91 -1.16,0.91l-4.73,0l-3.29,2.31l0.77,-2.31l-0.53,0c-0.64,0 -1.16,-0.41 -1.16,-0.91l0,0l0,-1.36l0,0z" fill="#fc003e" id="svg_4"/>
  <text fill="#020202" font-family="Serif" font-size="5.08" font-weight="bold" id="svg_3" stroke-width="0" style="cursor: move;" text-anchor="middle" transform="matrix(1 0 0 1 0 0)" x="19.23" xml:space="preserve" y="4.82">n</text>
  <text fill="#fffcfc" font-family="Serif" font-size="5.08" font-weight="bold" id="svg_5" stroke-width="0" style="cursor: move;" text-anchor="middle" x="25.86" xml:space="preserve" y="4.82">Hub</text>
  <path d="m15.71,3.41l0,-0.26l0.26,0l0,0.26l-0.26,0z" fill="#fc003e" id="svg_6"/>
  <path d="m15.71,3.41l0,-0.26l0.26,0l0,0.26l-0.26,0z" fill="#fc003e" id="svg_7"/>
  <path d="m15.71,3.41l0,-0.26l0.26,0l0,0.26l-0.26,0z" fill="#fc003e" id="svg_8"/>
  <path d="m15.71,3.41l0,-0.26l0.26,0l0,0.26l-0.26,0z" fill="#fc003e" id="svg_9"/>
  <path d="m15.71,3.41l0,-0.26l0.26,0l0,0.26l-0.26,0z" fill="#fc003e" id="svg_10"/>
  <path d="m15.71,3.41l0,-0.26l0.26,0l0,0.26l-0.26,0z" fill="#fc003e" id="svg_11"/>
  <path d="m15.7,3.96l0,-0.28l0.29,0l0,0.28l-0.29,0z" fill="#fc003e" id="svg_12"/>
 </g>
</svg>